<svg width="8" height="8" viewBox="0 0 8 8" fill="none" xmlns="http://www.w3.org/2000/svg">
<g id="Figma" clip-path="url(#clip0_210_7520)">
<path id="Vector" d="M2.66665 7.99999C3.40265 7.99999 3.99998 7.40266 3.99998 6.66666V5.33333H2.66665C1.93065 5.33333 1.33331 5.93066 1.33331 6.66666C1.33331 7.40266 1.93065 7.99999 2.66665 7.99999Z" fill="#0ACF83"/>
<path id="Vector_2" d="M1.33331 4.00001C1.33331 3.26401 1.93065 2.66667 2.66665 2.66667H3.99998V5.33334H2.66665C1.93065 5.33334 1.33331 4.73601 1.33331 4.00001Z" fill="#A259FF"/>
<path id="Vector_3" d="M1.33331 1.33333C1.33331 0.597333 1.93065 0 2.66665 0H3.99998V2.66667H2.66665C1.93065 2.66667 1.33331 2.06933 1.33331 1.33333Z" fill="#F24E1E"/>
<path id="Vector_4" d="M4 0H5.33333C6.06933 0 6.66667 0.597333 6.66667 1.33333C6.66667 2.06933 6.06933 2.66667 5.33333 2.66667H4V0Z" fill="#FF7262"/>
<path id="Vector_5" d="M6.66667 4.00001C6.66667 4.73601 6.06933 5.33334 5.33333 5.33334C4.59733 5.33334 4 4.73601 4 4.00001C4 3.26401 4.59733 2.66667 5.33333 2.66667C6.06933 2.66667 6.66667 3.26401 6.66667 4.00001Z" fill="#1ABCFE"/>
</g>
<defs>
<clipPath id="clip0_210_7520">
<rect width="8" height="8" fill="white"/>
</clipPath>
</defs>
</svg>
